<svg width="139" height="119" viewBox="0 0 139 119" fill="none" xmlns="http://www.w3.org/2000/svg">
                        <g filter="url(#filter0_d_265_1078)">
                        <rect x="52.9375" y="83.8856" width="6.51539" height="14.6596" rx="3.25769" fill="#AE4C00"/>
                        </g>
                        <g filter="url(#filter1_d_265_1078)">
                        <rect x="75.7412" y="83.8856" width="6.51539" height="14.6596" rx="3.25769" fill="#AE4C00"/>
                        </g>
                        <g filter="url(#filter2_d_265_1078)">
                        <path d="M15.57 57.078C23.7143 48.9337 36.8808 47.7121 42.446 48.1193V62.3717C30.0939 64.0006 7.42578 65.2222 15.57 57.078Z" fill="#F0D800"/>
                        <path d="M15.57 57.078C23.7143 48.9337 36.8808 47.7121 42.446 48.1193V62.3717C30.0939 64.0006 7.42578 65.2222 15.57 57.078Z" stroke="#F0D800" stroke-width="0.814424"/>
                        </g>
                        <g filter="url(#filter3_d_265_1078)">
                        <path d="M125.421 57.078C117.277 48.9337 104.11 47.7121 98.5452 48.1193V62.3717C110.897 64.0006 133.565 65.2222 125.421 57.078Z" fill="#F0D800"/>
                        <path d="M125.421 57.078C117.277 48.9337 104.11 47.7121 98.5452 48.1193V62.3717C110.897 64.0006 133.565 65.2222 125.421 57.078Z" stroke="#F0D800" stroke-width="0.814424"/>
                        </g>
                        <g filter="url(#filter4_d_265_1078)">
                        <path d="M42.722 39.4255C50.0663 28.5006 53.7385 23.0381 57.9938 20.5098C64.917 16.3963 73.535 16.3963 80.4582 20.5098C84.7136 23.0381 88.3857 28.5006 95.7301 39.4255V39.4255C104.716 52.7926 109.209 59.4762 109.772 64.9351C110.689 73.8322 106.126 82.3983 98.2306 86.6009C93.3863 89.1794 85.3329 89.1794 69.226 89.1794V89.1794C53.1191 89.1794 45.0657 89.1794 40.2214 86.6009C32.326 82.3983 27.7628 73.8322 28.68 64.9351C29.2427 59.4762 33.7358 52.7926 42.722 39.4255V39.4255Z" fill="#FBE51E"/>
                        </g>
                        <ellipse cx="57.8237" cy="43.9789" rx="1.62885" ry="2.44327" fill="black"/>
                        <ellipse cx="57.8237" cy="43.9789" rx="1.62885" ry="2.44327" fill="black"/>
                        <ellipse cx="77.3701" cy="43.9789" rx="1.62885" ry="2.44327" fill="black"/>
                        <path d="M60.3948 61.0877C59.4175 54.5723 64.3312 48.8714 66.9102 46.8353C73.4256 44.7992 73.0184 50.9074 73.4256 51.7218C73.8328 52.5363 61.6165 69.232 60.3948 61.0877Z" fill="#FFB52C" stroke="#FFB52C" stroke-width="0.814424"/>
                        <ellipse cx="63.8247" cy="53.3105" rx="0.61896" ry="4.02324" transform="rotate(-150 63.8247 53.3105)" fill="white"/>
                        <circle cx="77.9891" cy="43.3272" r="0.61896" fill="white"/>
                        <circle cx="58.1824" cy="43.3272" r="0.61896" fill="white"/>
                        <defs>
                        <filter id="filter0_d_265_1078" x="50.4617" y="83.8856" width="11.4673" height="19.6113" filterUnits="userSpaceOnUse" color-interpolation-filters="sRGB">
                        <feFlood flood-opacity="0" result="BackgroundImageFix"/>
                        <feColorMatrix in="SourceAlpha" type="matrix" values="0 0 0 0 0 0 0 0 0 0 0 0 0 0 0 0 0 0 127 0" result="hardAlpha"/>
                        <feOffset dy="2.47584"/>
                        <feGaussianBlur stdDeviation="1.23792"/>
                        <feComposite in2="hardAlpha" operator="out"/>
                        <feColorMatrix type="matrix" values="0 0 0 0 0 0 0 0 0 0 0 0 0 0 0 0 0 0 0.25 0"/>
                        <feBlend mode="normal" in2="BackgroundImageFix" result="effect1_dropShadow_265_1078"/>
                        <feBlend mode="normal" in="SourceGraphic" in2="effect1_dropShadow_265_1078" result="shape"/>
                        </filter>
                        <filter id="filter1_d_265_1078" x="73.2654" y="83.8856" width="11.4673" height="19.6113" filterUnits="userSpaceOnUse" color-interpolation-filters="sRGB">
                        <feFlood flood-opacity="0" result="BackgroundImageFix"/>
                        <feColorMatrix in="SourceAlpha" type="matrix" values="0 0 0 0 0 0 0 0 0 0 0 0 0 0 0 0 0 0 127 0" result="hardAlpha"/>
                        <feOffset dy="2.47584"/>
                        <feGaussianBlur stdDeviation="1.23792"/>
                        <feComposite in2="hardAlpha" operator="out"/>
                        <feColorMatrix type="matrix" values="0 0 0 0 0 0 0 0 0 0 0 0 0 0 0 0 0 0 0.25 0"/>
                        <feBlend mode="normal" in2="BackgroundImageFix" result="effect1_dropShadow_265_1078"/>
                        <feBlend mode="normal" in="SourceGraphic" in2="effect1_dropShadow_265_1078" result="shape"/>
                        </filter>
                        <filter id="filter2_d_265_1078" x="10.9621" y="47.6438" width="34.3667" height="21.2758" filterUnits="userSpaceOnUse" color-interpolation-filters="sRGB">
                        <feFlood flood-opacity="0" result="BackgroundImageFix"/>
                        <feColorMatrix in="SourceAlpha" type="matrix" values="0 0 0 0 0 0 0 0 0 0 0 0 0 0 0 0 0 0 127 0" result="hardAlpha"/>
                        <feOffset dy="2.47584"/>
                        <feGaussianBlur stdDeviation="1.23792"/>
                        <feComposite in2="hardAlpha" operator="out"/>
                        <feColorMatrix type="matrix" values="0 0 0 0 0 0 0 0 0 0 0 0 0 0 0 0 0 0 0.25 0"/>
                        <feBlend mode="normal" in2="BackgroundImageFix" result="effect1_dropShadow_265_1078"/>
                        <feBlend mode="normal" in="SourceGraphic" in2="effect1_dropShadow_265_1078" result="shape"/>
                        </filter>
                        <filter id="filter3_d_265_1078" x="95.6623" y="47.6438" width="34.3667" height="21.2758" filterUnits="userSpaceOnUse" color-interpolation-filters="sRGB">
                        <feFlood flood-opacity="0" result="BackgroundImageFix"/>
                        <feColorMatrix in="SourceAlpha" type="matrix" values="0 0 0 0 0 0 0 0 0 0 0 0 0 0 0 0 0 0 127 0" result="hardAlpha"/>
                        <feOffset dy="2.47584"/>
                        <feGaussianBlur stdDeviation="1.23792"/>
                        <feComposite in2="hardAlpha" operator="out"/>
                        <feColorMatrix type="matrix" values="0 0 0 0 0 0 0 0 0 0 0 0 0 0 0 0 0 0 0.25 0"/>
                        <feBlend mode="normal" in2="BackgroundImageFix" result="effect1_dropShadow_265_1078"/>
                        <feBlend mode="normal" in="SourceGraphic" in2="effect1_dropShadow_265_1078" result="shape"/>
                        </filter>
                        <filter id="filter4_d_265_1078" x="26.0876" y="17.4247" width="86.2769" height="76.7064" filterUnits="userSpaceOnUse" color-interpolation-filters="sRGB">
                        <feFlood flood-opacity="0" result="BackgroundImageFix"/>
                        <feColorMatrix in="SourceAlpha" type="matrix" values="0 0 0 0 0 0 0 0 0 0 0 0 0 0 0 0 0 0 127 0" result="hardAlpha"/>
                        <feOffset dy="2.47584"/>
                        <feGaussianBlur stdDeviation="1.23792"/>
                        <feComposite in2="hardAlpha" operator="out"/>
                        <feColorMatrix type="matrix" values="0 0 0 0 0 0 0 0 0 0 0 0 0 0 0 0 0 0 0.25 0"/>
                        <feBlend mode="normal" in2="BackgroundImageFix" result="effect1_dropShadow_265_1078"/>
                        <feBlend mode="normal" in="SourceGraphic" in2="effect1_dropShadow_265_1078" result="shape"/>
                        </filter>
                        </defs>
                    </svg>